<?xml version="1.0" encoding="UTF-8" standalone="no"?>
<!DOCTYPE svg PUBLIC "-//W3C//DTD SVG 1.1//EN" "http://www.w3.org/Graphics/SVG/1.1/DTD/svg11.dtd">
<svg width="100%" height="100%" viewBox="0 0 1024 1024" version="1.1" xmlns="http://www.w3.org/2000/svg" xmlns:xlink="http://www.w3.org/1999/xlink" xml:space="preserve" xmlns:serif="http://www.serif.com/" style="fill-rule:evenodd;clip-rule:evenodd;stroke-linejoin:round;stroke-miterlimit:2;">
    <path d="M162.878,214.588C163.221,213.421 165.528,205.575 168.166,200.332C170.306,196.079 183.637,167.832 221.484,161.404C225.35,160.747 226.469,160.557 270.5,160.693C315.613,160.833 749.069,160.627 782.502,160.771C795.559,160.827 816.19,158.825 838.743,178.201C864.06,199.951 863.13,230.055 863.158,231.507C863.229,235.163 863.188,235.162 863.19,496.502C863.181,576.832 863.172,657.162 863.162,737.492C863.01,802.694 864.879,804.256 856.128,823.323C851.233,833.987 844.254,840.666 842.935,841.927C820.027,863.847 799.944,863.122 783.501,863.132C623.499,863.124 463.496,863.116 303.494,863.107C299.814,863.116 264.43,863.207 257.494,863.03C242.897,862.658 231.177,864.154 219.405,861.952C216.926,861.489 202.405,858.772 190.347,849.714C185.287,845.913 182.753,843.456 182.139,842.861C157.358,818.83 160.735,789.893 160.678,777.499C160.681,644.833 160.683,512.166 160.686,379.499C160.668,288.415 160.543,288.42 160.626,280.501C161.125,233.395 159.188,232.687 162.878,214.588Z" style="fill:rgb(251,251,251);"/>
    <path d="M686.104,506.454C682.216,542.476 681.784,542.402 678.062,578.453C676.568,592.93 666.482,595.572 655.643,601.756C647.582,606.355 616.755,623.123 613.348,625.237C609.31,627.741 608.901,626.42 608.615,625.458C608.466,624.958 602.875,603.795 577.503,602.42C573.969,602.228 573.865,602.49 573.184,601.921C572.021,600.949 572.477,600.608 572.29,572.503C572.24,565.142 572.025,562.414 573.879,560.93C581.65,554.71 581.584,554.688 588.592,547.595C591.029,545.129 591.849,546.657 597.719,550.131C612.027,558.6 612.219,558.622 612.785,560.389C613.108,561.397 613.684,565.494 618.106,569.897C624.486,576.251 641.133,578.643 648.774,563.636C654.766,551.867 645.129,533.149 627.516,536.578C624.189,537.226 624.453,535.829 611.857,527.023C605.943,522.889 605.935,522.156 605.927,521.508C605.916,520.559 625.9,482.905 612.122,438.619C611.022,435.083 613.072,434.974 619.311,431.172C621.541,429.813 626.697,426.61 627.338,426.212C635.679,421.03 636.037,421.787 636.426,421.87C636.848,421.962 651.735,427.646 660.364,412.422C669.174,396.878 652.165,375.452 632.786,386C626.758,389.281 623.736,398.27 623.517,398.515C622.535,399.612 621.702,399.582 608.615,405.758C604.428,407.734 599.937,410.582 598.424,408.566C597.353,407.137 591.828,398.236 580.761,388.21C554.116,364.07 527.354,364.58 525.983,362.198C525.292,360.998 525.167,353.289 524.162,340.52C523.695,334.581 527.003,335.892 529.7,330.608C539.844,310.736 516.177,292.162 498.823,305.878C490.288,312.625 489.451,327.895 497.906,335.107C500.77,337.55 499.835,338.19 499.23,348.48C498.466,361.49 498.286,361.685 497.518,362.516C496.084,364.07 479.159,364.186 458.238,377.079C432.286,393.073 427.074,409.058 424.487,409.44C423.198,409.63 422.961,408.97 403.584,400.304C399.47,398.464 400.03,397.757 398.085,393.701C393.354,383.84 374.957,376.688 364.214,392.314C362.491,394.82 354.971,411.899 372.585,421.332C378.576,424.54 387.949,421.377 389.327,421.976C390.109,422.316 411.157,435.066 411.521,435.48C413.482,437.705 408.748,443.451 407.261,465.482C405.167,496.496 417.884,519.852 417.86,521.495C417.825,523.964 411.859,526.241 403.699,532.751C399.245,536.304 398.053,536.933 396.478,536.752C394.135,536.482 386.199,534.064 378.368,542.376C367.907,553.479 374.707,576.007 394.518,574.798C405.918,574.103 409.899,563.997 410.49,562.496C411.828,559.098 411.564,558.732 414.77,556.935C427.326,549.899 432.14,545.101 434.395,546.639C434.46,546.683 440.466,553.279 447.292,558.768C450.219,561.121 451.382,561.362 451.526,563.497C451.635,565.124 451.936,599.964 451.392,601.454C450.59,603.65 441.444,600.696 429.763,606.962C422.632,610.788 416.873,619.401 415.532,624.51C415.044,626.366 415.261,627.34 413.438,626.725C412.911,626.547 373.848,604.544 359.348,596.787C346.145,589.724 346.814,585.549 344.228,564.536C342.51,550.58 324.454,387.912 324.639,384.508C325.397,370.558 337.669,366.707 349.609,358.682C350.336,358.193 404.822,323.52 405.288,323.189C406.813,322.104 412.802,318.674 419.338,314.229C420.871,313.186 500.803,262.607 501.343,262.238C511.593,255.244 521.834,261.848 523.312,262.8C547.686,278.515 548.043,277.905 572.383,293.705C576.272,296.229 576.35,296.032 621.284,324.816C625.19,327.319 663.57,351.905 670.193,355.973C673.775,358.173 673.764,358.395 690.312,368.778C699.854,374.764 699.316,385.829 699.235,387.486C699.168,388.869 689.064,480.882 686.104,506.454Z" style="fill:rgb(6,78,181);"/>
    <path d="M560.231,664.235C549.975,674.45 536.643,688.479 534.617,690.611C533.259,692.04 519.624,706.388 517.196,708.045C516.907,708.243 510.362,711.669 504.68,706.303C494.014,696.228 483.661,683.961 447.821,648.18C445.901,646.263 436.458,638.564 442.743,631.713C445.498,628.711 447.7,629.464 466.5,629.431C476.776,629.413 479.409,630.145 479.486,627.499C479.572,624.54 479.427,624.565 479.359,590.5C479.272,546.498 478.615,543.604 480.808,540.719C484.364,536.044 485.434,537.007 513.506,536.905C537.633,536.817 541.108,536.405 543.538,541.479C545.035,544.604 544.349,544.781 544.417,609.5C544.436,627.013 543.534,629.299 546.51,629.398C554.808,629.675 575.96,628.527 579.582,630.356C581.918,631.535 585.844,636.74 581.362,642.392C577.889,646.772 576.589,647.156 567.636,656.626C567.053,657.243 566.895,657.411 560.231,664.235Z" style="fill:rgb(3,178,165);"/>
    <path d="M636.068,732.418C634.133,740.443 630.703,752.676 613.428,761.354C606.075,765.047 603.658,764.98 566.501,764.927C424.05,764.725 423.898,765.649 416.474,763.582C402.611,759.723 393.339,747.833 390.909,742.299C385.32,729.57 387.418,727.672 386.934,696.501C386.909,694.903 386.76,685.314 386.933,676.517C387.038,671.162 391.52,666.257 397.494,666.17C413.671,665.933 417.1,665.852 419.994,672.271C421.521,675.658 420.579,691.181 420.815,719.499C420.822,720.359 419.995,725.994 424.608,729.345C427.888,731.727 428.304,730.961 467.502,731.113C477.342,731.151 547.742,731.423 590.497,731.111C591.8,731.102 598.761,732.041 602.079,726.274C603.435,723.918 603.111,723.714 603.12,677.499C603.12,676.384 603.122,667.796 611.474,666.333C612.386,666.174 626.764,665.969 628.531,666.333C638.689,668.427 636.797,681.109 636.824,687.496C636.872,699.021 636.844,709.581 636.839,711.502C636.801,726.064 637.048,726.065 636.068,732.418Z" style="fill:rgb(5,78,182);"/>
    <path d="M553.957,465.448C553.452,461.837 553.133,459.451 550.849,454.352C534.599,418.081 484.977,422.151 472.218,456.393C467.91,467.953 470.203,487.154 469.699,508.512C469.628,511.559 466.341,510.77 465.494,510.757C448.025,510.497 442.288,511.567 441.021,509.812C440.823,509.538 440.438,509.516 440.55,463.5C440.66,418.276 477.886,392.227 511.5,392.526C540.02,392.78 556.747,404.947 569.19,420.748C579.253,433.526 582.557,450.521 583.015,455.548C583.481,460.665 583.598,508.895 582.958,509.794C581.975,511.175 578.764,510.735 577.501,510.734C557.796,510.73 555.598,511.079 554.798,510.222C553.426,508.752 555.043,477.424 553.957,465.448Z" style="fill:rgb(6,77,181);"/>
</svg>
